<svg width="26" height="39" viewBox="0 0 26 39" fill="none" xmlns="http://www.w3.org/2000/svg">
<path d="M25.8198 35.0664V39H1.15723V35.5581L13.5015 21.8164C15.0197 20.1257 16.1929 18.6937 17.021 17.5205C17.8664 16.3301 18.453 15.269 18.7808 14.3374C19.1258 13.3885 19.2983 12.4224 19.2983 11.439C19.2983 10.1968 19.0396 9.07536 18.522 8.07471C18.0216 7.0568 17.2798 6.24593 16.2964 5.64209C15.313 5.03825 14.1226 4.73633 12.7251 4.73633C11.0516 4.73633 9.65413 5.06413 8.53271 5.71973C7.42855 6.35807 6.60042 7.25521 6.04834 8.41113C5.49626 9.56706 5.22021 10.8955 5.22021 12.3965H0.432617C0.432617 10.2744 0.898438 8.3335 1.83008 6.57373C2.76172 4.81396 4.14193 3.4165 5.9707 2.38135C7.79948 1.32894 10.0509 0.802734 12.7251 0.802734C15.106 0.802734 17.1418 1.22542 18.8325 2.0708C20.5233 2.89893 21.8172 4.0721 22.7144 5.59033C23.6287 7.09131 24.0859 8.85107 24.0859 10.8696C24.0859 11.9738 23.8962 13.0952 23.5166 14.2339C23.1543 15.3553 22.6453 16.4767 21.9897 17.5981C21.3514 18.7196 20.6009 19.8237 19.7383 20.9106C18.8929 21.9976 17.9871 23.0672 17.021 24.1196L6.92822 35.0664H25.8198Z" fill="white"/>
</svg>
