<svg width="25" height="40" viewBox="0 0 25 40" fill="none" xmlns="http://www.w3.org/2000/svg">
<path d="M8.11865 17.8052H11.5347C13.2082 17.8052 14.5884 17.5291 15.6753 16.9771C16.7795 16.4077 17.599 15.64 18.1338 14.6738C18.6859 13.6904 18.9619 12.5863 18.9619 11.3613C18.9619 9.91211 18.7204 8.6958 18.2373 7.7124C17.7542 6.729 17.0296 5.98714 16.0635 5.48682C15.0973 4.98649 13.8724 4.73633 12.3887 4.73633C11.043 4.73633 9.85254 5.00374 8.81738 5.53857C7.79948 6.05615 6.99723 6.79801 6.41064 7.76416C5.84131 8.73031 5.55664 9.86898 5.55664 11.1802H0.769043C0.769043 9.26514 1.25212 7.52262 2.21826 5.95264C3.18441 4.38265 4.53874 3.13184 6.28125 2.2002C8.04102 1.26855 10.0768 0.802734 12.3887 0.802734C14.666 0.802734 16.6587 1.20817 18.3667 2.01904C20.0747 2.81266 21.4032 4.00309 22.3521 5.59033C23.3009 7.16032 23.7754 9.11849 23.7754 11.4648C23.7754 12.4137 23.5511 13.4316 23.1025 14.5186C22.6712 15.5882 21.9897 16.5889 21.0581 17.5205C20.1437 18.4521 18.9533 19.2199 17.4868 19.8237C16.0203 20.4103 14.2606 20.7036 12.2075 20.7036H8.11865V17.8052ZM8.11865 21.7388V18.8662H12.2075C14.6056 18.8662 16.5897 19.1509 18.1597 19.7202C19.7297 20.2896 20.9632 21.0487 21.8604 21.9976C22.7747 22.9465 23.4131 23.9902 23.7754 25.1289C24.1549 26.2503 24.3447 27.3717 24.3447 28.4932C24.3447 30.2529 24.0428 31.8143 23.439 33.1772C22.8524 34.5402 22.0156 35.6961 20.9287 36.645C19.859 37.5939 18.5996 38.3099 17.1504 38.793C15.7012 39.276 14.1226 39.5176 12.4146 39.5176C10.7756 39.5176 9.23145 39.2847 7.78223 38.8188C6.35026 38.353 5.08219 37.6802 3.97803 36.8003C2.87386 35.9032 2.01123 34.8076 1.39014 33.5137C0.769043 32.2025 0.458496 30.7101 0.458496 29.0366H5.24609C5.24609 30.3478 5.53076 31.4951 6.1001 32.4785C6.68669 33.4619 7.51481 34.2297 8.58447 34.7817C9.67139 35.3166 10.9481 35.584 12.4146 35.584C13.881 35.584 15.1405 35.3338 16.1929 34.8335C17.2625 34.3159 18.082 33.5396 18.6514 32.5044C19.238 31.4692 19.5312 30.1667 19.5312 28.5967C19.5312 27.0267 19.2035 25.7414 18.5479 24.7407C17.8923 23.7228 16.9606 22.9723 15.7529 22.4893C14.5625 21.9889 13.1564 21.7388 11.5347 21.7388H8.11865Z" fill="white"/>
</svg>
