<svg width="25" height="39" viewBox="0 0 25 39" fill="none" xmlns="http://www.w3.org/2000/svg">
<path d="M6.18701 20.0659L2.35693 19.0825L4.24609 0.320312H23.5776V4.74561H8.30908L7.17041 14.9937C7.86051 14.5968 8.73177 14.2259 9.78418 13.8809C10.8538 13.5358 12.0788 13.3633 13.459 13.3633C15.2015 13.3633 16.7629 13.6652 18.1431 14.269C19.5233 14.8556 20.6965 15.701 21.6626 16.8052C22.646 17.9093 23.3965 19.2378 23.9141 20.7905C24.4316 22.3433 24.6904 24.0771 24.6904 25.9922C24.6904 27.8037 24.4403 29.4686 23.9399 30.9868C23.4569 32.505 22.7236 33.8335 21.7402 34.9722C20.7568 36.0936 19.5146 36.9648 18.0137 37.5859C16.5299 38.207 14.7788 38.5176 12.7603 38.5176C11.242 38.5176 9.80143 38.3105 8.43848 37.8965C7.09277 37.4652 5.88509 36.8182 4.81543 35.9556C3.76302 35.0757 2.90039 33.9888 2.22754 32.6948C1.57194 31.3836 1.15788 29.8481 0.985352 28.0884H5.54004C5.74707 29.5031 6.16113 30.6935 6.78223 31.6597C7.40332 32.6258 8.21419 33.359 9.21484 33.8594C10.2327 34.3424 11.4146 34.584 12.7603 34.584C13.8989 34.584 14.9082 34.3856 15.7881 33.9888C16.668 33.592 17.4098 33.0226 18.0137 32.2808C18.6175 31.5389 19.0747 30.6418 19.3853 29.5894C19.7131 28.5369 19.877 27.3551 19.877 26.0439C19.877 24.8535 19.7131 23.7493 19.3853 22.7314C19.0575 21.7135 18.5658 20.825 17.9102 20.0659C17.2718 19.3068 16.4868 18.7202 15.5552 18.3062C14.6235 17.8748 13.5539 17.6592 12.3462 17.6592C10.7417 17.6592 9.52539 17.8748 8.69727 18.3062C7.88639 18.7375 7.04964 19.3241 6.18701 20.0659Z" fill="white"/>
</svg>
